# xmcd
#
# Track frame offsets: 
#        150
#        14026
#        28425
#        45731
#        60603
#        75964
#        94240
#        109006
#        134103
#        147678
#        164151
#
# Disc length: 2416 seconds
#
# Revision: 2
# Processed by: cddbd v1.5.2PL0 Copyright (c) Steve Scherf et al.
# Submitted via: ExactAudioCopy v1.3
#
DISCID=a7096e0b
DTITLE=Rodney Crowell - Texas
DYEAR=2019
DGENRE=Country
TTITLE0=Rodney Crowell feat Lee Ann Womack and Randy Rogers - Flatland H
TTITLE0=illbillies
TTITLE1=Rodney Crowell feat Vince Gill - Caw Caw Blues
TTITLE2=Rodney Crowell feat Billy Gibbons - 56 Fury
TTITLE3=Rodney Crowell feat Lee Ann Womack, Ronnie Dunn and Willie Nelso
TTITLE3=n - Deep In The Heart of Uncertain Texas
TTITLE4=Rodney Crowell feat Ringo Starr - You're Only Happy When You'r
TTITLE4=e Miserable
TTITLE5=I'll Show Me
TTITLE6=Rodney Crowell feat Lyle Lovett - What You Gonna Do Now
TTITLE7=Rodney Crowell feat John Jorgenson - The Border
TTITLE8=Treetop Slim and Billy Lowgrass
TTITLE9=Rodney Crowell  feat Steve Earle - Brown and Root, Brown and Root
TTITLE10=Texas Drought Part 1
EXTD=
EXTT0=
EXTT1=
EXTT2=
EXTT3=
EXTT4=
EXTT5=
EXTT6=
EXTT7=
EXTT8=
EXTT9=
EXTT10=
PLAYORDER=
